<svg xmlns="http://www.w3.org/2000/svg" viewBox="0 0 24 24">
  <path d="M20.904,9.109C21.077,7.761,21.171,5.131,19.75,3c0,0-3.352,0.01-6.221,3.081C13.028,6.033,12.52,6,12,6c-0.599,0-1.183,0.042-1.756,0.104C7.37,3.009,4,3,4,3C2.505,5.242,2.686,8.041,2.873,9.313C1.691,10.509,1,11.949,1,13.5C1,20,5.925,21,12,21s11,0,11-7.5C23,11.858,22.217,10.344,20.904,9.109z M15.607,18.999c-1.984,0-5.229,0-7.213,0c-2.673-0.062-4.77-2.455-4.336-5.225c0.287-1.834,1.743-3.34,3.567-3.689c0.861-0.165,1.682-0.08,2.413,0.191c1.254,0.466,2.671,0.466,3.926,0c0.731-0.272,1.552-0.356,2.413-0.191c1.824,0.349,3.28,1.855,3.567,3.689C20.376,16.544,18.28,18.937,15.607,18.999z" fill="#FFFFFF" />
  <path d="M16.376,10.085c-0.861-0.165-1.682-0.08-2.413,0.191c-1.254,0.466-2.671,0.466-3.926,0c-0.731-0.272-1.552-0.356-2.413-0.191c-1.824,0.349-3.28,1.855-3.567,3.689C3.624,16.545,5.72,18.938,8.393,19c1.984,0,5.229,0,7.213,0c2.673-0.062,4.77-2.455,4.336-5.225C19.656,11.94,18.2,10.434,16.376,10.085z" opacity=".35" fill="#FFFFFF" />
  <ellipse cx="8.5" cy="14.5" rx="1.5" ry="2.5" fill="#FFFFFF" />
  <ellipse cx="15.5" cy="14.5" rx="1.5" ry="2.5" fill="#FFFFFF" />
</svg>