<svg xmlns="http://www.w3.org/2000/svg" viewBox="0 0 24 24">
  <path d="M20.92,14c-0.2,1.44-0.86,2.84-1.97,3.95c-2.73,2.73-7.17,2.73-9.9,0c-2.73-2.73-2.73-7.17,0-9.9 c1.39-1.39,3.21-2.07,5.03-2.05c-0.31,2.11,0.35,4.33,1.97,5.95C17.4,13.3,19.16,13.98,20.92,14z" opacity=".3" fill="#222222" />
  <polygon points="4,3 3.187,5.188 1,6 3.187,6.813 4,9 4.812,6.813 7,6 4.812,5.188" fill="#222222" />
  <path d="M14,20.996c-2.049,0-4.098-0.779-5.657-2.339c-3.118-3.119-3.118-8.195,0-11.314C9.899,5.787,11.894,4.983,14.011,5 l1.049,0.012l-0.062,1.047c-0.121,2.056,0.52,3.945,1.759,5.185c1.116,1.115,2.599,1.739,4.174,1.757l1.136,0.013l-0.156,1.125 c-0.239,1.721-1.018,3.283-2.253,4.52C18.098,20.217,16.049,20.996,14,20.996z M12.997,7.071c-1.213,0.192-2.318,0.765-3.24,1.686 c-2.339,2.34-2.339,6.146,0,8.486c2.341,2.338,6.147,2.336,8.486,0c0.67-0.671,1.161-1.47,1.448-2.349 c-1.639-0.269-3.151-1.041-4.349-2.237C13.938,11.253,13.111,9.261,12.997,7.071z" fill="#222222" />
</svg>